# xmcd
#
# Track frame offsets:
# 150
# 18940
# 34027
# 48987
# 64172
# 79272
# 93505
# 105370
# 120107
# 139662
# 154642
# 169385
# 185715
# 198247
# 217215
#
# Disc length: 3107 seconds
#
#
# Revision: 0
# Processed by: cddbd v1.5.2PL0 Copyright (c) Steve Scherf et al.
# Submitted via: FreeRIP 2.945 
#
DISCID=c70c210f
DTITLE=O Melhor de Osvaldir and Carlos Magrão - 
DYEAR=1900
DGENRE=
TTITLE0=Querência Amada
TTITLE1=Mulher Chorona
TTITLE2=Roda de Chimarrão
TTITLE3=Um Bagual Corcoveador
TTITLE4=Tetinha
TTITLE5=Ruas e Linhas
TTITLE6=A Gringa
TTITLE7=Vá Embora Tristeza
TTITLE8=Estrada Velha
TTITLE9=Morenaça
TTITLE10=Um Pito
TTITLE11=Santa Helena Da Serra
TTITLE12=Surungo no Campo Fundo
TTITLE13=A Trote
TTITLE14=Adeus MAriana
EXTD=
EXTT0=
EXTT1=
EXTT2=
EXTT3=
EXTT4=
EXTT5=
EXTT6=
EXTT7=
EXTT8=
EXTT9=
EXTT10=
EXTT11=
EXTT12=
EXTT13=
EXTT14=
PLAYORDER=
